<?xml version="1.0" encoding="utf-8"?>
<!-- Generator: Adobe Illustrator 28.4.1, SVG Export Plug-In . SVG Version: 6.00 Build 0)  -->
<svg version="1.1" xmlns="http://www.w3.org/2000/svg" xmlns:xlink="http://www.w3.org/1999/xlink" x="0px" y="0px"
	 viewBox="0 0 1418 125" style="enable-background:new 0 0 1418 125;" xml:space="preserve">
<style type="text/css">
	.st0{display:none;}
	.st1{display:inline;}
	.st2{fill:none;stroke:#282828;stroke-width:6.1114;stroke-linecap:round;stroke-miterlimit:10;}
</style>
<g id="Layer_1" class="st0">
	<path class="st1" d="M1412.3,72.2c-11-5.8-20.1-14.3-85.5-25.2c-22.4-3.6-44.7-7.6-67.1-11c-167.1-22.1-181.7-21.2-304.9-30.6
		c-66-3.9-132.3-4.2-198.4-5.3c-46.6-0.1-93.3,1.6-139.9,2.5c-251,11.1-163.7,5.2-338.6,20.6C202.6,33.3,127.4,45,52.1,55.7
		c-11.2,2.4-22.6,4.2-33.7,7.2C6.1,66.3,5.6,66.2,3.9,67.8c-8,5.8-3,20.1,8.7,17.5c34-9.5,32.3-8.6,178.1-29.7
		c4.3,4.5,7.3,3.4,18.4,3.1c13.2-0.3,26.4-0.5,39.6-1.1c53.5-3.8,106.9-9.6,160.4-14c18.4-1.3,36.8-3.1,55.2-4.7
		c23.2-1.2,46.4-2.3,69.6-3.4c120.3-2.2,85.5-3.1,234.7-1.5c23.4,1,1.6-0.2,125.7,6.9c96.6,8.9,200.9,27.9,295.4,46.1
		c40.9,7.9,116.7,23.2,156.3,36.8c3.8,1.1,8.3-0.3,10.5-3.6c3.2-3.7,2.7-9.7-0.8-13.1c-3.2-3.1-8.1-3.4-12.2-5.1
		c-17.9-5.8-44.2-12.1-63.7-16.6l26.2,3.3c23,3.1,46.3,3.9,69.3,6.8c10.8,1,25.4,1.8,34.3-4.4c2.3-1.5,4.9-2.8,6.2-5.3
		C1418.7,81.3,1417,74.8,1412.3,72.2L1412.3,72.2z M925.4,23.8c37.6,1.4,154,10.9,196.6,14.9c45.9,5.5,91.9,11,137.8,17.2
		c24.2,4.8,74.1,11.2,101.7,18.1c-11.9-1.2-23.8-2-35.7-3.1C1192.4,55.1,1059.1,38,925.4,23.8z"/>
</g>
<g id="Layer_2">
	<path class="st2" d="M89.8,63c223.7-42.2,709.2-11.5,709,8.3c-0.1,10-286.7-48.3-603.4-19.8c-13.3,1.2,370.9-33.8,579.9,33.4"/>
</g>
</svg>
