<?xml version="1.0" encoding="utf-8"?>
<!-- Generator: Adobe Illustrator 28.4.1, SVG Export Plug-In . SVG Version: 6.00 Build 0)  -->
<svg version="1.1" id="Layer_1" xmlns="http://www.w3.org/2000/svg" xmlns:xlink="http://www.w3.org/1999/xlink" x="0px" y="0px"
	 viewBox="0 0 512 114.3" style="enable-background:new 0 0 512 114.3;" xml:space="preserve">
<style type="text/css">
	.st0{display:none;}
	.st1{display:inline;}
	.st2{fill:#FF0000;}
	.st3{fill:#FFFFFF;}
	.st4{fill:#282828;}
	.st5{fill:#0866FF;}
	.st6{display:inline;fill:#0766FF;}
	.st7{fill:url(#SVGID_1_);}
</style>
<g transform="matrix(5.715038, 0, 0, 5.715038, 409.288757, 277.787231)" class="st0">
	<g class="st1">
		<path class="st2" d="M-43.6-45.5c-0.3-1.2-1.3-2.2-2.5-2.5c-2.2-0.6-11.2-0.6-11.2-0.6s-8.9,0-11.2,0.6c-1.2,0.3-2.2,1.3-2.5,2.5
			c-0.6,2.2-0.6,6.9-0.6,6.9s0,4.6,0.6,6.9c0.3,1.2,1.3,2.2,2.5,2.5c2.2,0.6,11.2,0.6,11.2,0.6s8.9,0,11.2-0.6
			c1.2-0.3,2.2-1.3,2.5-2.5C-43-34-43-38.6-43-38.6S-43-43.3-43.6-45.5z"/>
		<path class="st3" d="M-60.2-34.3l7.4-4.3l-7.4-4.3V-34.3z"/>
	</g>
	<g class="st1">
		<g id="youtube-paths">
			<path class="st4" d="M-37-35.6l-3.2-11.6h2.8l1.1,5.3c0.3,1.3,0.5,2.4,0.6,3.3h0.1c0.1-0.7,0.3-1.7,0.6-3.3l1.2-5.3h2.8
				l-3.2,11.6v5.6H-37L-37-35.6L-37-35.6z"/>
			<path class="st4" d="M-30.1-30.4c-0.6-0.4-1-1-1.2-1.8c-0.2-0.8-0.4-1.9-0.4-3.2v-1.8c0-1.3,0.1-2.4,0.4-3.2
				c0.3-0.8,0.7-1.4,1.3-1.8c0.6-0.4,1.3-0.6,2.3-0.6c0.9,0,1.7,0.2,2.2,0.6c0.6,0.4,1,1,1.2,1.8c0.3,0.8,0.4,1.9,0.4,3.2v1.8
				c0,1.3-0.1,2.4-0.4,3.2c-0.3,0.8-0.7,1.4-1.2,1.8c-0.6,0.4-1.3,0.6-2.3,0.6C-28.8-29.8-29.6-30-30.1-30.4z M-27-32.4
				c0.2-0.4,0.2-1.1,0.2-2v-3.9c0-0.9-0.1-1.6-0.2-2c-0.2-0.4-0.4-0.6-0.8-0.6c-0.4,0-0.7,0.2-0.8,0.6c-0.2,0.4-0.2,1.1-0.2,2v3.9
				c0,0.9,0.1,1.6,0.2,2c0.2,0.4,0.4,0.6,0.8,0.6C-27.4-31.8-27.1-32-27-32.4z"/>
			<path class="st4" d="M-14.8-30H-17l-0.2-1.5h-0.1c-0.6,1.2-1.5,1.7-2.7,1.7c-0.8,0-1.4-0.3-1.8-0.8c-0.4-0.5-0.6-1.4-0.6-2.6
				v-9.4h2.8v9.2c0,0.6,0.1,1,0.2,1.2c0.1,0.2,0.3,0.4,0.6,0.4c0.2,0,0.5-0.1,0.7-0.2c0.2-0.2,0.4-0.3,0.5-0.6v-10h2.8V-30z"/>
			<path class="st4" d="M-7.1-44.9h-2.8V-30h-2.8v-14.9h-2.8v-2.3h8.4V-44.9z"/>
			<path class="st4" d="M-0.3-30h-2.2l-0.2-1.5h-0.1c-0.6,1.2-1.5,1.7-2.7,1.7c-0.8,0-1.4-0.3-1.8-0.8C-7.8-31.2-8-32.1-8-33.2v-9.4
				h2.8v9.2c0,0.6,0.1,1,0.2,1.2c0.1,0.2,0.3,0.4,0.6,0.4c0.2,0,0.5-0.1,0.7-0.2c0.2-0.2,0.4-0.3,0.5-0.6v-10h2.8V-30z"/>
			<path class="st4" d="M9-40.6c-0.2-0.8-0.4-1.4-0.8-1.7c-0.4-0.4-0.9-0.5-1.6-0.5c-0.5,0-1,0.1-1.5,0.4c-0.4,0.3-0.8,0.7-1,1.2h0
				v-6.6H1.4V-30h2.3L4-31.2H4c0.2,0.4,0.5,0.8,1,1c0.4,0.2,0.9,0.4,1.5,0.4c1,0,1.7-0.4,2.1-1.3c0.4-0.9,0.7-2.3,0.7-4.1v-2
				C9.2-38.7,9.2-39.8,9-40.6z M6.4-35.5c0,0.9,0,1.6-0.1,2.1c-0.1,0.5-0.2,0.9-0.4,1.1c-0.2,0.2-0.4,0.3-0.7,0.3
				c-0.2,0-0.4-0.1-0.6-0.2c-0.2-0.1-0.4-0.3-0.5-0.5v-7.1c0.1-0.3,0.3-0.6,0.5-0.8c0.2-0.2,0.5-0.3,0.8-0.3c0.3,0,0.5,0.1,0.7,0.3
				c0.2,0.2,0.3,0.6,0.3,1.1c0.1,0.5,0.1,1.3,0.1,2.3L6.4-35.5L6.4-35.5z"/>
			<path class="st4" d="M13.2-34.7c0,0.8,0,1.4,0.1,1.8c0,0.4,0.1,0.7,0.3,0.9c0.2,0.2,0.4,0.3,0.7,0.3c0.4,0,0.7-0.2,0.9-0.5
				c0.2-0.3,0.2-0.9,0.3-1.6l2.4,0.1c0,0.1,0,0.3,0,0.4c0,1.2-0.3,2-1,2.6c-0.6,0.6-1.5,0.9-2.7,0.9c-1.4,0-2.4-0.4-2.9-1.3
				c-0.6-0.9-0.8-2.2-0.8-4v-2.2c0-1.9,0.3-3.3,0.9-4.1c0.6-0.9,1.6-1.3,3-1.3c1,0,1.7,0.2,2.2,0.5c0.5,0.4,0.9,0.9,1.1,1.7
				c0.2,0.8,0.3,1.8,0.3,3.1v2.1h-4.7V-34.7z M13.6-40.6c-0.1,0.2-0.2,0.5-0.3,0.9c0,0.4-0.1,1-0.1,1.8v0.9h2.1v-0.9
				c0-0.8,0-1.4-0.1-1.8c-0.1-0.4-0.2-0.7-0.3-0.9c-0.1-0.2-0.4-0.3-0.7-0.3C14-40.9,13.7-40.8,13.6-40.6z"/>
		</g>
	</g>
</g>
<g class="st0">
	<g id="Logo" class="st1">
		<path id="Initiator" class="st5" d="M102.9,57.2c0-28.4-23-51.4-51.4-51.4S0,28.7,0,57.2c0,24.1,16.6,44.4,39,49.9V72.9H28.4V57.2
			H39v-6.8c0-17.5,7.9-25.6,25.1-25.6c3.3,0,8.9,0.6,11.2,1.3v14.2c-1.2-0.1-3.3-0.2-5.9-0.2c-8.4,0-11.7,3.2-11.7,11.5v5.6h16.8
			l-2.9,15.7H57.7v35.3C83.1,105.1,102.9,83.5,102.9,57.2z"/>
		<path id="F" class="st3" d="M71.6,72.9l2.9-15.7H57.7v-5.6c0-8.3,3.3-11.5,11.7-11.5c2.6,0,4.7,0.1,5.9,0.2V26
			c-2.3-0.6-7.9-1.3-11.2-1.3C46.9,24.8,39,32.9,39,50.4v6.8H28.4v15.7H39v34.2c4,1,8.1,1.5,12.4,1.5c2.1,0,4.2-0.1,6.2-0.4V72.9
			H71.6z"/>
	</g>
	<path id="path46" class="st6" d="M465.8,90.3h12.8V69.6l17.8,20.7H512l-20.7-23.8L509,45.8h-14.2l-16.2,19v-42l-12.8,1.7
		L465.8,90.3L465.8,90.3z M436.3,44.7c-14.2,0-24,9.5-24,23.4s9.8,23.4,24,23.4c14.2,0,24-9.5,24-23.4S450.5,44.7,436.3,44.7z
		 M436.3,80.5c-6.6,0-11.1-5.1-11.1-12.5c0-7.4,4.5-12.5,11.1-12.5c6.6,0,11.1,5.1,11.1,12.5C447.4,75.5,442.9,80.5,436.3,80.5z
		 M384.4,44.7c-14.2,0-24,9.5-24,23.4s9.8,23.4,24,23.4c14.2,0,24-9.5,24-23.4S398.6,44.7,384.4,44.7z M384.4,80.5
		c-6.6,0-11.1-5.1-11.1-12.5c0-7.4,4.5-12.5,11.1-12.5c6.6,0,11.1,5.1,11.1,12.5C395.5,75.5,391,80.5,384.4,80.5z M335.6,44.7
		c-5.9,0-10.8,2.3-13.9,6.6V22.9l-12.8,1.7v65.8h11.3l0.2-6.9c3,5.1,8.4,8,15.1,8c12.1,0,21-9.8,21-23.4
		C356.6,54.5,347.7,44.7,335.6,44.7L335.6,44.7z M332.6,80.5c-6.6,0-11.1-5.1-11.1-12.5c0-7.4,4.5-12.5,11.1-12.5
		c6.6,0,11.1,5.1,11.1,12.5C343.6,75.5,339.1,80.5,332.6,80.5z M283.3,81.1c-6.8,0-11.6-3.2-13.3-8.6h31.5c0.3-1.7,0.5-3.6,0.5-5
		c0-14.3-8-22.9-21.4-22.9c-13.6,0-23,9.5-23,23.4c0,14,9.8,23.4,24.5,23.4c7.6,0,14.9-2.5,19.5-6.7l-4.6-8.1
		C292.5,79.7,288.2,81.1,283.3,81.1z M280.5,54.6c5.9,0,9.7,3.6,9.7,9.1v0h-20.4C271,57.9,274.8,54.6,280.5,54.6z M237.6,91.4
		c6.6,0,13.1-2.5,17.6-6.9l-5-8.4c-3.5,2.8-7.6,4.2-11.4,4.2c-7.1,0-11.8-5-11.8-12.3c0-7.3,4.7-12.3,11.8-12.3
		c3.5,0,7.3,1.3,10.4,3.5l5.1-8.6c-4.1-3.7-10.5-6-16.8-6c-13.9,0-23.7,9.7-23.7,23.4C213.9,81.7,223.7,91.4,237.6,91.4L237.6,91.4z
		 M197,45.8l-0.2,6.9c-3-5.2-8.4-8-15.1-8c-12.2,0-21,9.8-21,23.4s8.9,23.4,21,23.4c6.7,0,12.1-2.9,15.1-8l0.2,6.9h11.3V45.8H197z
		 M184.7,80.5c-6.6,0-11.1-5.1-11.1-12.5s4.5-12.5,11.1-12.5c6.6,0,11.1,5.1,11.1,12.5S191.3,80.5,184.7,80.5z M159.7,45.9h-11.5
		v-3.8c0-5.7,2.2-7.9,8-7.9c1.8,0,3.2,0,4.1,0.1v-9.7c-1.6-0.4-5.4-0.9-7.6-0.9c-11.7,0-17.2,5.5-17.2,17.5v4.6h-7.3v10.7h7.3v33.6
		h12.8V56.7h9.5L159.7,45.9z"/>
</g>
<path class="st4" d="M142.3,8.1c-7.7,3.2-16.2,12.3-18.8,23.7c-3.4,14.5,10.7,20.6,11.8,18.6c1.3-2.3-2.5-3.2-3.3-10.7
	c-1.1-9.7,3.5-20.5,9.1-25.3c1.1-0.9,1,0.4,1,2.6c0,4-0.2,40.5-0.2,48.2c0,10.3-0.4,13.6-1.2,16.8c-0.8,3.3-2,5.4-1.1,6.3
	c1.1,0.9,5.6-1.3,8.1-4.9c3.1-4.3,4.2-9.6,4.4-15.3c0.2-6.9,0.2-17.8,0.2-24c0-5.7,0.1-22.4-0.1-32.4C152.3,9.3,145.5,6.7,142.3,8.1
	 M415.5,56.3c-0.2,5.3-1.4,9.6-2.9,12.5c-2.9,5.7-8.8,7.5-11.2-0.7c-1.3-4.5-1.4-12-0.5-18.2c1-6.4,3.8-11.2,8.4-10.7
	C413.9,39.5,416,45.5,415.5,56.3L415.5,56.3z M338.5,89.6c-0.1,8.9-1.5,16.7-4.5,19c-4.3,3.2-10,0.8-8.8-5.7
	c1.1-5.7,6-11.6,13.3-18.8C338.5,84.1,338.5,85.7,338.5,89.6L338.5,89.6z M337.3,56.2c-0.2,4.9-1.5,9.8-2.9,12.5
	c-2.9,5.7-8.8,7.5-11.2-0.7c-1.7-5.6-1.3-12.9-0.5-17.5c1.1-6,3.7-11.5,8.4-11.5C335.8,39.1,338,44.2,337.3,56.2L337.3,56.2z
	 M292.8,56.2c-0.3,5.2-1.3,9.5-2.9,12.7c-2.9,5.7-8.7,7.5-11.2-0.7c-1.8-5.9-1.2-14-0.5-18.3c1.1-6.4,4-11.1,8.4-10.6
	C291.1,39.5,293.3,45.5,292.8,56.2L292.8,56.2z M497.2,62.2c-1.1,0-1.6,1.2-2.1,3.1c-1.5,6.7-3,8.3-5,8.3c-2.2,0-4.2-3.3-4.7-10
	c-0.4-5.3-0.4-14.9,0.2-24.6c0.1-2-0.5-3.9-5.7-5.9c-2.3-0.8-5.6-2.1-7.3,1.9c-4.7,11.2-6.5,20.2-6.9,23.8c0,0.2-0.2,0.2-0.3-0.2
	c-0.3-2.9-0.9-8.2-0.9-19.3c0-2.2-0.5-4-2.9-5.5c-1.5-1-6.3-2.7-8-0.6c-1.5,1.7-3.2,6.2-4.9,11.6c-1.5,4.4-2.5,7.3-2.5,7.3
	s0-11.8,0.1-16.2c0-1.7-1.2-2.2-1.5-2.3c-1.6-0.5-4.7-1.2-6-1.2c-1.6,0-2,0.9-2,2.2c0,0.2-0.2,15.5-0.2,26.2c0,0.5,0,1,0,1.5
	c-0.9,4.9-3.8,11.6-7,11.6s-4.6-2.8-4.6-15.6c0-7.4,0.2-10.7,0.4-16.1c0.1-3.1,0.2-5.5,0.2-6c0-1.6-2.9-2.5-4.2-2.8
	c-1.3-0.3-2.5-0.4-3.4-0.4c-1.3,0.1-2.2,0.9-2.2,2.1c0,0.6,0,1.8,0,1.8c-1.6-2.6-4.3-4.5-6.1-5c-4.8-1.4-9.8-0.2-13.5,5.1
	c-3,4.2-4.8,8.9-5.5,15.8c-0.5,5-0.4,10,0.6,14.3c-1.1,4.8-3.2,6.8-5.4,6.8c-3.3,0-5.7-5.4-5.4-14.6c0.2-6.1,1.4-10.4,2.8-16.6
	c0.6-2.6,0.1-4-1.1-5.3c-1.1-1.2-3.3-1.8-6.6-1.1c-2.3,0.5-5.6,1.1-8.7,1.6c0,0,0.2-0.7,0.4-2.1c0.8-6.8-6.6-6.2-8.9-4
	c-1.4,1.3-2.3,2.8-2.7,5.6c-0.6,4.3,3,6.4,3,6.4c-1.2,5.3-4,12.2-7,17.3c-1.6,2.7-2.8,4.7-4.3,6.8c0-0.8,0-1.6,0-2.3
	c-0.1-11.2,0.1-20,0.2-23.1c0.1-3.1,0.2-5.4,0.2-6c0-1.2-0.7-1.7-2.2-2.2c-1.3-0.5-2.9-0.9-4.5-1c-2-0.2-3.2,0.9-3.2,2.2
	c0,0.2,0,1.7,0,1.7c-1.6-2.6-4.3-4.5-6.1-5c-4.8-1.4-9.8-0.2-13.5,5.1c-3,4.2-5,10.1-5.5,15.7c-0.5,5.3-0.4,9.7,0.3,13.5
	c-0.8,3.7-2.9,7.7-5.4,7.7c-3.2,0-5-2.8-5-15.6c0-7.4,0.2-10.7,0.4-16.1c0.1-3.1,0.2-5.5,0.2-6c0-1.6-2.9-2.5-4.2-2.8
	c-1.4-0.4-2.6-0.5-3.5-0.4c-1.2,0.1-2.1,1.2-2.1,2v1.9c-1.6-2.6-4.3-4.5-6.1-5c-4.8-1.4-9.7-0.1-13.5,5.1c-2.5,3.4-4.5,7.2-5.5,15.6
	c-0.3,2.4-0.4,4.7-0.4,6.9c-1,6-5.3,13-8.9,13c-2.1,0-4.1-4-4.1-12.7c0-11.5,0.7-27.8,0.8-29.4c0,0,4.5-0.1,5.4-0.1
	c2.2,0,4.3,0,7.3-0.1c1.5-0.1,2.9-5.4,1.4-6.2c-0.7-0.3-5.7-0.6-7.6-0.6c-1.6-0.1-6.3-0.4-6.3-0.4s0.4-10.8,0.5-12
	c0.1-0.9-1.2-1.5-1.9-1.8c-1.7-0.7-3.3-1.1-5.1-1.5c-2.5-0.5-3.7,0-3.9,2.1c-0.4,3.2-0.5,12.7-0.5,12.7c-1.9,0-8.2-0.4-10-0.4
	c-1.7,0-3.6,7.4-1.2,7.5c2.8,0.1,7.5,0.2,10.7,0.3c0,0-0.1,16.6-0.1,21.7c0,0.5,0,1.1,0,1.6c-1.8,9.1-7.9,14-7.9,14
	c1.3-6-1.3-10.5-6.2-14.4c-1.8-1.4-5.3-4.1-9.3-7c0,0,2.3-2.2,4.3-6.8c1.5-3.2,1.5-6.9-2.1-7.7c-5.8-1.3-10.6,2.9-12.1,7.5
	c-1.1,3.5-0.5,6.2,1.6,8.9c0.2,0.2,0.4,0.4,0.5,0.6c-1.3,2.5-3.1,6-4.6,8.6c-4.3,7.3-7.4,13.2-9.9,13.2c-1.9,0-1.9-5.9-1.9-11.4
	c0-4.7,0.4-12,0.6-19.3c0.1-2.5-1.1-3.9-3.2-5.1c-1.2-0.8-3.9-2.3-5.4-2.3c-2.3,0-9,0.3-15.3,18.5c-0.8,2.3-2.3,6.5-2.3,6.5
	l0.1-21.9c0-0.5-0.3-1-0.9-1.3c-1.1-0.6-3.9-1.8-6.4-1.8c-1.2,0-1.8,0.6-1.8,1.7l-0.2,34.3c0,2.6,0.1,5.6,0.4,7
	c0.2,1.3,0.6,2.4,1.2,3c0.5,0.6,1.1,1.1,2.1,1.3c0.9,0.2,5.9,0.8,6.2-1.1c0.3-2.3,0.4-4.7,2.9-14c4.1-14.4,9.4-21.4,11.9-23.9
	c0.4-0.4,0.9-0.5,0.9,0.2c-0.1,3.2-0.5,11-0.8,17.7c-0.7,17.9,2.6,21.2,7.2,21.2c3.6,0,8.6-3.5,13.9-12.5c3.3-5.6,6.6-11.1,9-15
	c1.6,1.5,3.5,3.1,5.3,4.9c4.3,4,5.6,7.9,4.7,11.5c-0.7,2.8-3.4,5.6-8.1,2.9c-1.4-0.8-2-1.5-3.3-2.3c-0.8-0.5-1.9-0.6-2.6-0.1
	c-1.8,1.3-2.8,3-3.4,5.2c-0.6,2.1,1.5,3.2,3.6,4.1c1.8,0.8,5.8,1.6,8.3,1.6c9.8,0.4,17.6-4.7,23.1-17.8c1,11.2,5.2,17.6,12.4,17.6
	c4.9,0,9.7-6.3,11.8-12.4c0.6,2.5,1.5,4.7,2.7,6.5c5.6,8.8,16.4,6.9,21.8-0.6c1.7-2.3,1.9-3.2,1.9-3.2c0.8,7.1,6.5,9.6,9.8,9.6
	c3.6,0,7.4-1.8,10.1-7.7c0.3,0.6,0.6,1.3,1,1.9c5.6,8.8,16.4,6.9,21.8-0.6c0.2-0.4,0.5-0.6,0.6-0.9l0.2,4.6c0,0-3.1,2.9-5,4.6
	c-8.4,7.7-14.8,13.5-15.2,20.3c-0.6,8.7,6.4,11.9,11.7,12.3c5.6,0.5,10.5-2.7,13.4-7c2.6-3.8,4.3-12.1,4.2-20.3
	c-0.1-3.3-0.1-7.4-0.2-11.9c2.9-3.4,6.3-7.7,9.3-12.8c3.3-5.5,6.9-12.9,8.7-18.7c0,0,3.1,0,6.4-0.2c1.1-0.1,1.3,0.2,1.2,0.9
	c-0.2,0.9-4.2,16.1-0.6,26.2c2.5,6.9,8,9.1,11.3,9.1c3.9,0,7.6-2.9,9.5-7.2c0.2,0.5,0.5,0.9,0.8,1.4c5.6,8.8,16.3,6.9,21.8-0.6
	c1.2-1.7,1.9-3.2,1.9-3.2c1.2,7.3,6.9,9.6,10.1,9.6c3.4,0,6.6-1.4,9.3-7.6c0.1,2.8,0.3,5,0.5,5.7c0.2,0.4,1.1,1,1.8,1.2
	c3.1,1.2,6.3,0.6,7.4,0.4c0.8-0.2,1.5-0.8,1.5-2.5c0.2-4.4,0.1-11.8,1.4-17.4c2.2-9.3,4.3-12.9,5.3-14.6c0.6-1,1.2-1.2,1.2-0.1
	c0.1,2.1,0.2,8.4,1,16.8c0.6,6.2,1.5,9.8,2.2,11c1.9,3.3,4.2,3.5,6.1,3.5c1.2,0,3.7-0.4,3.5-2.5c-0.1-1.1,0.1-7.4,2.3-16.5
	c1.5-6,3.9-11.4,4.7-13.3c0.3-0.7,0.5-0.2,0.5-0.1c-0.2,4.1-0.6,17.5,1.1,24.9c2.3,10,8.8,11.1,11.1,11.1c4.9,0,8.8-3.7,10.2-13.5
	C499.1,64,498.6,62.2,497.2,62.2"/>
<radialGradient id="SVGID_1_" cx="-1162.7601" cy="-31.9779" r="7.7906" gradientTransform="matrix(16 0 0 16 18630 617)" gradientUnits="userSpaceOnUse">
	<stop  offset="9.000000e-02" style="stop-color:#FA8F21"/>
	<stop  offset="0.78" style="stop-color:#D82D7E"/>
</radialGradient>
<path class="st7" d="M45,57.2c0-8.8,7.1-15.9,15.9-15.9s15.9,7.1,15.9,15.9s-7.1,15.9-15.9,15.9S45,65.9,45,57.2 M36.4,57.2
	c0,13.5,11,24.5,24.5,24.5s24.5-11,24.5-24.5S74.4,32.7,60.9,32.7S36.4,43.6,36.4,57.2 M80.7,31.7c0,3.2,2.6,5.7,5.7,5.7
	c3.2,0,5.7-2.6,5.7-5.7s-2.6-5.7-5.7-5.7l0,0C83.2,25.9,80.7,28.5,80.7,31.7 M41.6,96c-4.6-0.2-7.2-1-8.8-1.6
	c-2.2-0.9-3.8-1.9-5.5-3.6c-1.7-1.6-2.7-3.3-3.6-5.5c-0.6-1.7-1.4-4.2-1.6-8.8c-0.2-5-0.3-6.6-0.3-19.3s0.1-14.2,0.3-19.3
	c0.2-4.6,1-7.2,1.6-8.8c0.9-2.2,1.9-3.8,3.6-5.5c1.7-1.7,3.3-2.7,5.5-3.6c1.7-0.6,4.2-1.4,8.8-1.6c5-0.2,6.6-0.3,19.3-0.3
	s14.2,0.1,19.3,0.3c4.6,0.2,7.2,1,8.8,1.6c2.2,0.9,3.8,1.9,5.5,3.6c1.7,1.6,2.7,3.3,3.6,5.5c0.6,1.7,1.4,4.2,1.6,8.8
	c0.2,5,0.3,6.6,0.3,19.3s-0.1,14.2-0.3,19.3c-0.2,4.6-1,7.2-1.6,8.8c-0.9,2.2-1.9,3.8-3.6,5.5s-3.3,2.7-5.5,3.6
	c-1.7,0.6-4.2,1.4-8.8,1.6c-5,0.2-6.6,0.3-19.3,0.3S46.7,96.2,41.6,96 M41.2,9.7c-5.1,0.2-8.6,1.1-11.6,2.2
	c-3.2,1.2-5.8,2.9-8.4,5.5s-4.3,5.3-5.5,8.4c-1.2,3-2,6.5-2.2,11.6s-0.3,6.7-0.3,19.7s0.1,14.6,0.3,19.7c0.2,5.1,1.1,8.6,2.2,11.6
	c1.2,3.2,2.9,5.8,5.5,8.4c2.6,2.6,5.3,4.3,8.4,5.5c3,1.2,6.5,2,11.6,2.2c5.1,0.2,6.7,0.3,19.7,0.3s14.6-0.1,19.7-0.3
	c5.1-0.2,8.6-1.1,11.6-2.2c3.2-1.2,5.8-2.9,8.4-5.5c2.6-2.6,4.3-5.3,5.5-8.4c1.2-3,2-6.5,2.2-11.6c0.2-5.1,0.3-6.7,0.3-19.7
	s-0.1-14.6-0.3-19.7s-1.1-8.6-2.2-11.6c-1.2-3.2-2.9-5.8-5.5-8.4c-2.6-2.6-5.3-4.3-8.4-5.5c-3-1.2-6.5-2-11.6-2.2
	c-5.1-0.2-6.7-0.3-19.7-0.3S46.3,9.5,41.2,9.7"/>
</svg>
