<?xml version="1.0" encoding="utf-8"?>
<!-- Generator: Adobe Illustrator 28.4.1, SVG Export Plug-In . SVG Version: 6.00 Build 0)  -->
<svg version="1.1" id="katman_1" xmlns="http://www.w3.org/2000/svg" xmlns:xlink="http://www.w3.org/1999/xlink" x="0px" y="0px"
	 viewBox="0 0 325.2 114.3" style="enable-background:new 0 0 325.2 114.3;" xml:space="preserve">
<style type="text/css">
	.st0{fill:#FD0000;}
	.st1{fill:#282828;}
	.st2{fill:#FEF9F9;}
	.st3{display:none;}
	.st4{display:inline;fill:url(#SVGID_1_);}
	.st5{display:inline;fill:url(#SVGID_00000183246692067673199810000006477944567249203635_);}
	.st6{display:inline;fill:#282828;}
</style>
<g id="Layer_1-2">
	<path class="st0" d="M18.2,69c-2.1-1.2-4-2.3-5.9-3.4c-5.5-3.2-9.7-7.8-10.8-14.1C-0.2,41.4,1.3,32.8,12,26.4
		c13.5-8.1,27.2-15.8,40.8-23.6c13.4-7.6,31,1.2,33,16.5c1.4,9.3-3.2,18.5-11.5,23c-1.8,1-3.6,2.1-5.7,3.3c2,1.2,3.7,2.3,5.5,3.3
		c14.2,8,16.1,26.9,3.6,37.3c-2.5,2-5.4,3.5-8.2,5.1c-11.7,6.8-23.5,13.7-35.3,20.3c-10.9,5.9-24.6,1.7-30.5-9.2
		C-1.9,92,1.5,79.1,11.5,72.8C13.7,71.6,15.8,70.4,18.2,69z M32.5,74.4l29.3-17L32.5,40.4V74.4z"/>
	<path class="st1" d="M150.2,97.3V14.8H163v30.3c0.4-0.6,0.9-1.5,1.6-2.3c4.3-5.7,13.6-6.8,18.1-1.7c1.3,1.6,2.3,3.6,2.8,5.6
		c0.5,2,0.8,4,0.8,6.1c0.1,14.4,0,28.9,0,43.3c0,0.4,0,0.8-0.1,1.2H173v-1.8c0-13.7,0-27.5,0-41.2c0-1.4-0.2-2.9-0.5-4.3
		c-0.6-2.2-2.3-3.1-4.6-2.7c-2.8,0.4-4.8,2.9-4.7,5.7v44.3L150.2,97.3L150.2,97.3z"/>
	<path class="st1" d="M108.9,74.8h12c0,1.8-0.1,3.6,0,5.4c0.1,1.4,0.3,2.9,0.7,4.2c0.9,3,2.8,4.3,5.7,4.2c3-0.2,4.7-1.8,5.4-4.7
		c1.3-7-0.7-13-5.7-18c-3.4-3.3-7.1-6.4-10.6-9.7c-8.5-7.9-9.8-17.9-7.4-28.6c1.2-5.5,5.1-8.9,10.6-10.4c4.3-1.2,8.9-1.3,13.4-0.4
		c5.7,1.2,9.4,4.6,10.9,10.3c1.2,4.3,1.1,8.7,0.5,13.2l-11.7,0.8c-0.2-3.1-0.4-6.1-0.6-9.1c-0.1-0.5-0.2-1.2-0.3-1.7
		c-0.8-2.9-2.3-4.1-5.1-4c-2.8,0.1-4.8,1.3-5.4,4.1c-1.4,6.1-0.4,11.5,4.2,16c4,3.9,7.9,7.7,12,11.5c9.2,8.7,10.2,19.3,6.9,30.8
		c-1.4,4.7-4.8,7.6-9.6,8.9c-4.7,1.2-9.5,1.4-14.2,0.4c-6.9-1.4-10.6-5.3-11.7-12.3C108.2,82.2,108.3,78.5,108.9,74.8z"/>
	<path class="st1" d="M191.3,68.5c0.5-5.4,0.7-10.8,1.5-16.1c0.5-2.5,1.3-4.9,2.6-7.1c1.8-3.6,4.9-5.7,8.8-6.6
		c3.6-0.9,7.4-0.9,11-0.2c6.7,1.2,10.2,5.7,11.6,12c0.8,4,1.2,7.9,1.3,12c0.2,7.2,0.5,14.4-0.9,21.6c-0.4,2-0.9,4-1.8,5.9
		c-1.6,3.8-4.8,6.7-8.9,7.6c-4.4,1.2-9.1,1.2-13.5,0c-6.4-1.7-9.3-6.7-10.2-12.7C191.8,79.5,191.7,74,191.3,68.5z M214.9,68.4h-0.3
		c0-4.3,0.2-8.7-0.1-13c-0.2-2-0.5-4-1.2-5.8c-0.8-1.9-2.9-2.9-4.8-2.2c-1,0.4-1.8,1.2-2.2,2.2c-0.6,1.7-1.1,3.6-1.2,5.4
		c-0.2,8.9-0.2,17.9,0,26.7c0.2,1.9,0.5,3.8,1.2,5.5c0.5,1.4,1.9,2.3,3.4,2.2c1.5,0.2,2.9-0.7,3.5-2.1c0.5-1,0.9-2.2,1-3.3
		C214.6,78.8,214.7,73.6,214.9,68.4z"/>
	<path class="st1" d="M291.1,79.6h11c0.2,2.2,0.6,4.3,1.2,6.4c0.7,2.4,3,3.9,5.4,3.5c3.8-0.5,5.8-4.1,3.9-7.6
		c-1.2-2-2.8-3.8-4.7-5.3c-3.4-3-7.1-5.6-10.5-8.5c-6.3-5.7-7.5-12.8-5.4-20.7c1.2-4.6,4.4-7.3,8.9-8.5c4.3-1.2,8.8-1.2,13-0.2
		c5.5,1.3,8.6,4.9,9.5,11.2c0.4,2.6,0.4,5.4,0.5,8.3l-5.7,0.3l-5.4,0.2c-0.3-2.6-0.5-5.1-0.9-7.6c-0.5-2.7-2.1-3.9-4.7-3.7
		c-3.3,0.2-4.8,2.1-4.6,5.4c0.1,2.6,1.3,5,3.4,6.6c3.6,2.9,7.2,5.6,10.8,8.5c3.3,2.7,6.4,5.8,7.1,10.2c0.5,3.4,0.5,6.8,0,10.2
		c-0.8,4.8-4,7.9-8.8,9.4c-4.7,1.5-9.8,1.6-14.6,0.2c-5.5-1.5-8.9-5.4-9.4-11.1C290.9,84.5,291.1,82.2,291.1,79.6z"/>
	<path class="st1" d="M278.9,49.4c0,11.6-0.1,23.1,0,34.5c0,4.3,0.9,4.9,5.2,4.2c0.9-0.2,1.6-0.4,2.7-0.6c0.5,2.8,1.1,5.6,1.6,8.5
		c-5.3,2.1-10.5,3-16,1.9c-2.6-0.4-4.7-2.4-5.2-5c-0.6-2.8-1-5.6-1.1-8.5c-0.1-11-0.1-22-0.1-32.9v-1.9h-4.7V39.3
		c1.3,0,2.6-0.1,3.8,0c1.2,0.1,1.6-0.3,1.6-1.5c0.4-4.9,0.9-9.7,1.4-14.6c0-0.4,0.2-0.7,0.2-1.2h9.7v17.2h8.9v10.2H278.9z"/>
	<path class="st1" d="M258.4,38.2c-0.2,5.1-0.4,10.1-0.6,15c-2.4,0-4.7-0.2-6.9,0.1c-1.2,0.2-2.3,0.7-3.3,1.5
		c-1.2,0.8-1.8,2.2-1.7,3.6c0.1,12.4,0,24.8,0,37.3v1.8h-12.6V39.1h10c0.4,4.2,0.8,8.4,1.2,12.5h0.3c0.2-1.5,0.6-2.9,1.1-4.3
		c0.9-2.2,1.9-4.3,3.3-6.2C251.3,38.2,254.6,37.4,258.4,38.2z"/>
	<path class="st2" d="M32.5,74.4V40.4l29.3,16.9L32.5,74.4z"/>
</g>
<g transform="translate(1.4065934065934016 1.4065934065934016) scale(2.81 2.81)" class="st3">
	
		<linearGradient id="SVGID_1_" gradientUnits="userSpaceOnUse" x1="-151.2828" y1="140.0411" x2="-127.636" y2="164.8752" gradientTransform="matrix(2.81 0 0 -2.81 434.2607 424.996)">
		<stop  offset="0" style="stop-color:#FF6400"/>
		<stop  offset="0.5" style="stop-color:#FF0100"/>
		<stop  offset="1" style="stop-color:#FD0056"/>
	</linearGradient>
	<path class="st4" d="M27.9-0.5H12.5c-7.2,0-13,5.9-13,13v14.6c0,7.2,5.9,13,13,13h15.4c7.2,0,13-5.9,13-13V12.5
		C41,5.4,35.1-0.5,27.9-0.5z M37.1,10.7h-6.3l-4.2-7.5h1.3C32.5,3.2,36.3,6.4,37.1,10.7z M17.9,10.7l-4.2-7.5h8.7l4.2,7.5L17.9,10.7
		L17.9,10.7z M9.7,3.6l3.9,7.1H3.4C4,7.4,6.5,4.6,9.7,3.6z M27.9,36.5H12.5c-5.2,0-9.4-4.2-9.4-9.4V14.4h34.1v12.7
		C37.3,32.3,33.1,36.5,27.9,36.5z"/>
	
		<linearGradient id="SVGID_00000183953204681328144590000004600267451697752717_" gradientUnits="userSpaceOnUse" x1="-150.7511" y1="139.5347" x2="-127.1043" y2="164.3689" gradientTransform="matrix(2.81 0 0 -2.81 434.2607 424.996)">
		<stop  offset="0" style="stop-color:#FF6400"/>
		<stop  offset="0.5" style="stop-color:#FF0100"/>
		<stop  offset="1" style="stop-color:#FD0056"/>
	</linearGradient>
	<path style="display:inline;fill:url(#SVGID_00000183953204681328144590000004600267451697752717_);" d="M25.5,23.1l-8-4.3
		C16.4,18.2,15,19,15,20.2v8.6c0,1.2,1.3,2,2.4,1.4l8-4.3C26.6,25.3,26.6,23.7,25.5,23.1z"/>
</g>
<g class="st3">
	<path class="st6" d="M140.6,37L140.6,37h10.9c2.9,0,5.1,0.8,6.6,2.4c1.5,1.6,2.3,3.6,2.3,6c0,2.5-0.8,4.5-2.3,6
		c-1.5,1.5-3.8,2.2-6.7,2.2h-10.8V37z M162.7,60.4c3-1.5,5.3-3.5,6.9-6.1c1.6-2.6,2.4-5.7,2.4-9.2c0-3.4-0.8-6.5-2.4-9.1
		c-1.6-2.6-3.9-4.7-6.9-6.2c-2.9-1.5-6.3-2.3-10.2-2.3h-12h-3.1h-8.6v60.2h11.7V62.6h2l19.2,25.1H176l-20.1-25.4
		C158.4,62.1,160.7,61.4,162.7,60.4z"/>
	<path class="st6" d="M193.5,56.3L193.5,56.3c1.7-1,3.6-1.5,5.8-1.5c2.1,0,3.9,0.4,5.3,1.3c1.4,0.9,2.5,2.1,3.3,3.8
		c0.4,0.8,0.7,1.7,0.9,2.7l-20,0.1c0.2-0.8,0.5-1.5,0.8-2.2C190.6,58.6,191.8,57.3,193.5,56.3 M209.8,48.1
		c-3.1-1.8-6.6-2.7-10.5-2.7c-4.1,0-7.8,0.9-11.1,2.8c-3.3,1.9-5.9,4.5-7.8,7.7c-1.9,3.3-2.9,6.9-2.9,11.1c0,4.2,1,7.9,2.9,11.1
		c1.9,3.3,4.6,5.8,8,7.7c3.4,1.9,7.3,2.8,11.6,2.8c3.4,0,6.5-0.6,9.3-1.8c2.9-1.2,5.3-3,7.5-5.4l-6.7-6.7c-1.3,1.5-2.7,2.6-4.5,3.3
		c-1.7,0.7-3.6,1-5.7,1c-2.3,0-4.4-0.5-6.2-1.5c-1.8-1-3.1-2.4-4.1-4.2c-0.4-0.7-0.7-1.5-0.9-2.4l30.2-0.1c0.2-0.9,0.4-1.8,0.4-2.5
		c0.1-0.8,0.1-1.5,0.1-2.3c0-4-0.9-7.6-2.6-10.7C215.3,52.3,212.9,49.8,209.8,48.1z"/>
	<path class="st6" d="M239.8,56.3L239.8,56.3c1.7-1,3.6-1.5,5.8-1.5c2.1,0,3.9,0.4,5.3,1.3c1.4,0.9,2.5,2.1,3.3,3.8
		c0.4,0.8,0.7,1.7,0.9,2.7l-20,0.1c0.2-0.8,0.5-1.5,0.8-2.2C236.9,58.6,238.2,57.3,239.8,56.3 M256.2,48.1
		c-3.1-1.8-6.6-2.7-10.5-2.7c-4.1,0-7.8,0.9-11.1,2.8c-3.3,1.9-5.9,4.5-7.8,7.7c-1.9,3.3-2.9,6.9-2.9,11.1c0,4.2,1,7.9,2.9,11.1
		c1.9,3.3,4.6,5.8,8,7.7c3.4,1.9,7.3,2.8,11.6,2.8c3.4,0,6.5-0.6,9.3-1.8c2.9-1.2,5.3-3,7.5-5.4l-6.7-6.7c-1.3,1.5-2.7,2.6-4.5,3.3
		c-1.7,0.7-3.6,1-5.7,1c-2.3,0-4.4-0.5-6.2-1.5c-1.8-1-3.1-2.4-4.1-4.2c-0.4-0.7-0.7-1.5-0.9-2.4l30.2-0.1c0.2-0.9,0.4-1.8,0.4-2.5
		c0.1-0.8,0.1-1.5,0.1-2.3c0-4-0.9-7.6-2.6-10.7C261.7,52.3,259.3,49.8,256.2,48.1z"/>
	<rect x="273" y="25.8" class="st6" width="11.2" height="62"/>
	<path class="st6" d="M319.3,65.5c-1.6-1-3.2-1.7-5-2.3c-1.7-0.5-3.4-1-5-1.5c-1.6-0.5-2.9-1-3.9-1.5c-1-0.5-1.5-1.3-1.5-2.4
		c0-0.9,0.4-1.6,1.3-2.1c0.9-0.5,2.1-0.8,3.9-0.8c1.8,0,3.4,0.4,5,1.1c1.6,0.7,3,1.8,4.2,3.3l6.8-6.9c-1.8-2.4-4.1-4.2-6.9-5.4
		c-2.8-1.2-5.9-1.8-9.3-1.8c-3.3,0-6.1,0.5-8.5,1.6c-2.4,1.1-4.3,2.6-5.6,4.5c-1.3,2-2,4.3-2,6.9c0,2.5,0.5,4.6,1.5,6.2
		c1,1.6,2.3,2.8,3.9,3.7c1.6,0.9,3.2,1.6,5,2.1c1.8,0.5,3.4,1,5,1.5c1.6,0.5,2.9,1,3.9,1.6c1,0.6,1.5,1.5,1.5,2.6
		c0,1-0.5,1.7-1.5,2.3c-1,0.5-2.4,0.8-4.2,0.8c-2.2,0-4.3-0.4-6.2-1.2c-1.9-0.8-3.5-2-4.9-3.7l-6.8,6.8c1.4,1.6,3,3,4.9,4.2
		c1.9,1.2,4,2.1,6.2,2.7c2.3,0.6,4.6,0.9,7,0.9c5,0,8.9-1.2,11.8-3.6c2.9-2.4,4.4-5.6,4.4-9.6c0-2.5-0.5-4.6-1.5-6.2
		C322.2,67.7,320.9,66.4,319.3,65.5"/>
</g>
</svg>
